<?xml version="1.0" standalone="no"?>
<!DOCTYPE svg PUBLIC "-//W3C//DTD SVG 20010904//EN"
 "http://www.w3.org/TR/2001/REC-SVG-20010904/DTD/svg10.dtd">
<svg version="1.0" xmlns="http://www.w3.org/2000/svg"
 width="200.000000pt" height="200.000000pt" viewBox="0 0 200.000000 200.000000"
 preserveAspectRatio="xMidYMid meet">

<g transform="translate(0.000000,200.000000) scale(0.100000,-0.100000)"
fill="#000000" stroke="none">
<path d="M312 1230 c-106 -16 -134 -57 -140 -205 -9 -213 34 -258 239 -258
168 0 214 39 225 190 11 144 -18 227 -91 258 -40 17 -167 25 -233 15z m38
-156 c0 -3 -11 -19 -25 -36 -14 -16 -25 -33 -25 -38 0 -5 11 -22 25 -38 27
-32 31 -42 16 -42 -5 0 -24 18 -41 40 l-32 40 32 40 c28 36 50 51 50 34z m80
2 c0 -3 -7 -35 -16 -73 -15 -67 -34 -105 -34 -70 0 32 32 147 41 147 5 0 9 -2
9 -4z m75 -36 l39 -40 -41 -42 c-23 -23 -46 -39 -49 -35 -4 4 8 23 26 42 l34
35 -32 33 c-18 18 -32 36 -32 40 0 16 18 5 55 -33z"/>
<path d="M1165 1143 c-30 -8 -57 -35 -46 -46 6 -6 19 -2 37 12 51 40 104 18
104 -44 0 -34 0 -34 -27 -19 -35 18 -57 18 -92 -1 -56 -28 -64 -110 -14 -142
27 -18 83 -19 113 -3 14 7 20 7 20 0 0 -5 9 -10 20 -10 19 0 20 7 20 104 0 84
-3 108 -17 125 -19 21 -81 34 -118 24z m73 -119 c22 -15 30 -66 14 -90 -17
-26 -51 -35 -80 -22 -22 11 -28 21 -30 55 -2 33 1 44 20 57 28 20 48 20 76 0z"/>
<path d="M1695 1143 c-33 -9 -56 -34 -45 -49 9 -9 16 -7 35 12 46 46 105 22
105 -42 0 -34 -1 -35 -22 -20 -65 46 -162 -21 -142 -98 3 -14 16 -33 27 -41
25 -17 89 -20 118 -5 13 7 19 7 19 0 0 -5 9 -10 20 -10 19 0 20 7 20 104 0 84
-3 108 -17 125 -19 21 -81 34 -118 24z m73 -119 c15 -10 22 -25 22 -49 0 -57
-52 -89 -95 -61 -50 33 -24 126 35 126 9 0 26 -7 38 -16z"/>
<path d="M830 1137 c0 -2 22 -58 49 -123 36 -87 53 -119 66 -119 13 0 30 32
65 120 26 66 46 122 44 124 -9 9 -24 -17 -59 -107 -21 -51 -39 -91 -41 -89 -2
2 -22 46 -43 98 -30 71 -45 95 -60 97 -12 2 -21 1 -21 -1z"/>
<path d="M1360 1137 c0 -2 22 -58 49 -123 36 -87 53 -119 66 -119 13 0 30 32
65 120 26 66 46 122 44 124 -9 9 -24 -17 -59 -107 -21 -51 -39 -91 -41 -89 -2
2 -22 46 -43 98 -30 71 -45 95 -60 97 -12 2 -21 1 -21 -1z"/>
</g>
</svg>
